Coordinates
version=1
nRows=4
nColumns=63
inDegrees=yes

Units are S.I. units (second, meters, Newtons, ...)
If the header above contains a line with 'inDegrees', this indicates whether rotational values are in degrees (yes) or radians (no).

endheader
time	pelvis_tilt	pelvis_list	pelvis_rotation	pelvis_tx	pelvis_ty	pelvis_tz	hip_flexion_r	hip_adduction_r	hip_rotation_r	knee_angle_r	knee_angle_r_beta	ankle_angle_r	subtalar_angle_r	mtp_angle_r	hip_flexion_l	hip_adduction_l	hip_rotation_l	knee_angle_l	knee_angle_l_beta	ankle_angle_l	subtalar_angle_l	mtp_angle_l	L5_S1_Flex_Ext	L5_S1_Lat_Bending	L5_S1_axial_rotation	L4_L5_Flex_Ext	L4_L5_Lat_Bending	L4_L5_axial_rotation	L3_L4_Flex_Ext	L3_L4_Lat_Bending	L3_L4_axial_rotation	L2_L3_Flex_Ext	L2_L3_Lat_Bending	L2_L3_axial_rotation	L1_L2_Flex_Ext	L1_L2_Lat_Bending	L1_L2_axial_rotation	L1_T12_Flex_Ext	L1_T12_Lat_Bending	L1_T12_axial_rotation	Abs_r3	Abs_r2	Abs_r1	Abs_t1	Abs_t2	neck_flexion	neck_bending	neck_rotation	arm_flex_r	arm_add_r	arm_rot_r	elbow_flex_r	pro_sup_r	wrist_flex_r	wrist_dev_r	arm_flex_l	arm_add_l	arm_rot_l	elbow_flex_l	pro_sup_l	wrist_flex_l	wrist_dev_l
      2.06779661	     -4.47674924	     -3.30509489	     98.73106264	      0.15248728	      0.92218632	      0.66108826	     -2.98031552	     -4.28105921	    -21.52135036	     11.55472701	      0.20166803	     29.35034592	     18.41000663	      0.00000000	     -0.96011059	      3.20141493	     10.54763103	      9.90655451	      0.17290199	     26.20892278	     -5.38259868	      0.00000000	     -0.08115565	     -0.92117412	      1.20802836	     -0.15071416	     -1.22516158	      1.28353013	     -0.13333062	     -2.23974275	      1.28353013	     -0.09275279	     -2.23974275	      1.05702482	     -0.07536114	     -1.87845826	      0.98152304	     -0.04637234	     -1.42689871	      0.90602127	     -0.57968669	    -10.42050585	      6.71869133	      0.00000000	      0.00000000	     18.65730138	      9.76571436	    -37.81595039	      3.60716925	    -25.90023766	    -64.59566107	    131.57793227	     88.43093700	    -15.00449583	     -7.85843501	      7.99095103	    -25.46001109	     90.76821390	      1.34696431	      2.40547091	    -19.91773978	     -8.12493453
      2.08474576	     -3.93926290	     -2.90384440	     99.20260988	      0.14975230	      0.92141665	      0.66131900	     -3.45462022	     -3.71518548	    -21.99625936	     11.40007044	      0.19896876	     29.54271123	     18.37628371	      0.00000000	     -1.25063621	      2.72285640	     11.31204530	     10.15110478	      0.17717020	     26.68465211	     -5.76820188	      0.00000000	     -0.13532132	     -0.74767905	      1.05706642	     -0.25130522	     -0.99441313	      1.12313307	     -0.22231939	     -1.81790683	      1.12313307	     -0.15465873	     -1.81790683	      0.92493312	     -0.12565938	     -1.52466711	      0.85886647	     -0.07732260	     -1.15815484	      0.79279981	     -0.96658664	     -8.45789491	      5.87908630	      0.00000000	      0.00000000	     19.95512013	      9.93911696	    -31.14578787	      0.24306739	    -21.29441127	    -63.85517893	    129.08418095	     87.96582924	    -13.30576681	     -7.43938043	      8.20346032	    -24.14334173	     91.04530345	      1.11040390	      2.23021038	    -21.52312603	     -9.88584461
      2.10169492	     -3.28597090	     -2.52444722	     99.50621252	      0.14707738	      0.92081515	      0.66179547	     -3.87055834	     -3.03807363	    -22.20545494	     11.19960301	      0.19546995	     29.49354987	     18.39008736	      0.00000000	     -1.44093830	      2.12650580	     11.69680616	     10.50514868	      0.18334943	     27.11379860	     -5.91336240	      0.00000000	     -0.18550362	     -0.56263900	      0.95671442	     -0.34449877	     -0.74830987	      1.01650907	     -0.30476389	     -1.36800047	      1.01650907	     -0.21201208	     -1.36800047	      0.83712512	     -0.17225866	     -1.14733345	      0.77733047	     -0.10599677	     -0.87152781	      0.71753582	     -1.32503378	     -6.36468491	      5.32095859	      0.00000000	      0.00000000	     20.49962363	      9.49207297	    -25.31263153	     -2.54866556	    -17.85471120	    -62.22691959	    124.97499840	     87.15388608	    -11.72948023	     -5.76521903	      8.56536812	    -22.65419698	     91.54101416	      0.93701236	      2.09469234	    -22.77995677	    -11.92135577
      2.11864407	     -2.72521768	     -2.23145545	     99.80476518	      0.14479658	      0.92073421	      0.66244114	     -4.18519075	     -2.45008731	    -22.49460226	     11.04261201	      0.19272994	     29.20615384	     18.41932148	      0.00000000	     -1.53441863	      1.60959408	     11.98285331	     10.88214271	      0.18992922	     27.29783680	     -5.93266434	      0.00000000	     -0.22594921	     -0.40658287	      0.87663202	     -0.41961029	     -0.54075522	      0.93142152	     -0.37121196	     -0.98856560	      0.93142152	     -0.25823736	     -0.98856560	      0.76705302	     -0.20981644	     -0.82910380	      0.71226351	     -0.12910738	     -0.62979687	      0.65747401	     -1.61393264	     -4.59934678	      4.87556429	      0.00000000	      0.00000000	     20.36632528	      8.61992778	    -20.73156062	     -4.47517974	    -15.23908060	    -59.94652003	    119.32352073	     86.14868152	    -10.10797266	     -2.09149910	      9.23542477	    -21.13917322	     92.06894990	      0.85051811	      1.98373302	    -24.06949966	    -13.74114882
